<?xml version="1.0" encoding="UTF-8"?>
<svg xmlns="http://www.w3.org/2000/svg" version="1.1" viewBox="0 0 1024 1024">
  <defs>
    <style>
      .cls-1 {
        fill: #d62d2d;
      }
    </style>
  </defs>
  <!-- Generator: Adobe Illustrator 28.7.1, SVG Export Plug-In . SVG Version: 1.2.0 Build 142)  -->
  <g>
    <g id="App_Icon_Shape">
      <path class="cls-1" d="M651,5c14,0,28.5,0,42.7,0,11.8,0,24,.2,35.9.5,23.2.6,50.6,1.9,77.6,6.8,26.8,4.8,50.6,12.7,73,24,22.9,11.6,43.8,26.8,62.1,45.2,18.1,18.1,33.3,39,45.2,62.1,11.4,22.4,19.2,46.3,24,73,4.9,27.8,6.2,56,6.8,77.5.3,13.4.5,25.2.5,35.9,0,14.2,0,28.7,0,42.7v283.1h0c0,12.4,0,25.2,0,37.7,0,11.8-.2,24-.5,35.9-.6,23.2-1.9,50.6-6.8,77.6-4.8,26.8-12.7,50.6-24,73-11.6,22.9-26.8,43.8-45.2,62.1-18.1,18.1-39,33.3-62.1,45.2-22.4,11.4-46.3,19.2-73,24-27.8,4.9-56,6.2-77.5,6.8-13.4.3-25.2.5-35.9.5-14.2,0-28.7,0-42.7,0h-278.1c-14,0-28.5,0-42.7,0-11.8,0-24-.2-35.9-.5-23.2-.6-50.6-1.9-77.6-6.8-26.8-4.8-50.6-12.7-73-24-22.9-11.6-43.8-26.8-62.1-45.2-18.3-18.3-33.6-39.2-45.3-62-11.4-22.4-19.2-46.3-24-73.1-4.9-27.8-6.2-56-6.8-77.5-.3-13.4-.5-25.2-.5-35.9,0-14.2,0-28.7,0-42.7v-278c0-14,0-28.5,0-42.7,0-11.8.2-24,.5-35.9.6-23.2,1.9-50.6,6.8-77.6,4.8-26.8,12.7-50.6,24-73,11.8-23.1,27-44.1,45.2-62.2,18.1-18.1,39-33.3,62.1-45.2,22.4-11.4,46.3-19.2,73-24,27.8-4.9,56-6.2,77.5-6.8,13.4-.3,25.2-.5,35.9-.5,14.3,0,28.8,0,42.8,0h278M651,0h-278C358.8,0,344.5,0,330.2,0c-12,0-24,.2-36,.5-26.1.7-52.5,2.3-78.3,6.9-26.2,4.7-50.6,12.4-74.4,24.5-23.4,12-44.8,27.5-63.4,46.1-18.6,18.6-34.1,40-46.1,63.5-12.1,23.8-19.8,48.2-24.5,74.4-4.7,25.8-6.2,52.2-6.9,78.3-.3,12-.4,24-.5,36-.1,14.2-.1,28.5-.1,42.7v278c0,14.2,0,28.5.1,42.7,0,12,.2,24,.5,36,.7,26.1,2.3,52.5,6.9,78.3,4.7,26.3,12.4,50.7,24.5,74.5,12,23.4,27.6,44.7,46.2,63.3,18.6,18.6,40,34.2,63.4,46.1,23.8,12.1,48.2,19.8,74.4,24.5,25.8,4.7,52.2,6.2,78.3,6.9,12,.3,24,.4,36,.5,14.2.1,28.5.1,42.7.1h278.1c14.2,0,28.5,0,42.7-.1,12,0,24-.2,36-.5,26.1-.7,52.5-2.3,78.3-6.9,26.2-4.7,50.6-12.4,74.4-24.5,23.4-12,44.8-27.5,63.4-46.1,18.6-18.6,34.2-40,46.1-63.4,12.1-23.8,19.8-48.2,24.5-74.4,4.7-25.8,6.2-52.2,6.9-78.3.3-12,.4-24,.5-36,0-14.2,0-28.5,0-42.7h0v-278.1c0-14.2,0-28.5-.1-42.7,0-12-.2-24-.5-36-.7-26.1-2.3-52.5-6.9-78.3-4.7-26.2-12.4-50.6-24.5-74.4-12-23.4-27.5-44.8-46.1-63.4-18.6-18.6-40-34.2-63.4-46.1-23.8-12.1-48.2-19.8-74.4-24.5-25.8-4.7-52.2-6.2-78.3-6.9-12-.3-24-.4-36-.5C679.5,0,665.2,0,651,0h0Z"/>
    </g>
  </g>
</svg>