<?xml version="1.0" encoding="utf-8"?>
<!-- Generator: Adobe Illustrator 26.0.0, SVG Export Plug-In . SVG Version: 6.00 Build 0)  -->
<svg version="1.1" id="App_Icon_Shape" xmlns="http://www.w3.org/2000/svg" xmlns:xlink="http://www.w3.org/1999/xlink" x="0px"
	 y="0px" viewBox="0 0 1024 1024" style="enable-background:new 0 0 1024 1024;" xml:space="preserve">
<style type="text/css">
	.st0{fill:#3177E8;}
</style>
<path class="st0" d="M1023.4,294.3c-0.7-26.1-2.2-52.5-6.9-78.3c-4.7-26.2-12.4-50.6-24.5-74.4c-11.9-23.4-27.5-44.8-46.1-63.4
	S905.9,44,882.5,32C858.7,19.9,834.3,12.2,808,7.5c-25.8-4.6-52.2-6.2-78.3-6.9c-12-0.3-24-0.5-36-0.5C679.5,0,665.2,0,651,0H373
	c-14.2,0-28.5,0-42.7,0.1c-12,0.1-24,0.2-36,0.5c-26.1,0.7-52.5,2.2-78.3,6.9c-26.2,4.7-50.6,12.4-74.4,24.5
	C118.1,44,96.7,59.5,78.1,78.1S44,118.1,32,141.5C19.9,165.3,12.2,189.7,7.5,216c-4.6,25.8-6.2,52.2-6.9,78.3c-0.3,12-0.5,24-0.5,36
	C0,344.5,0,358.8,0,373v278c0,14.2,0,28.5,0.1,42.7c0.1,12,0.2,24,0.5,36c0.7,26.1,2.2,52.5,6.9,78.3c4.7,26.2,12.4,50.6,24.5,74.4
	c11.9,23.4,27.5,44.8,46.1,63.4s40,34.1,63.4,46.1c23.8,12.1,48.2,19.8,74.4,24.5c25.8,4.6,52.2,6.2,78.3,6.9c12,0.3,24,0.5,36,0.5
	c14.2,0.1,28.5,0.1,42.7,0.1h278c14.2,0,28.5,0,42.7-0.1c12-0.1,24-0.2,36-0.5c26.1-0.7,52.5-2.2,78.3-6.9
	c26.2-4.7,50.6-12.4,74.4-24.5c23.4-11.9,44.8-27.5,63.4-46.1s34.1-40,46.1-63.4c12.1-23.8,19.8-48.2,24.5-74.4
	c4.6-25.8,6.2-52.2,6.9-78.3c0.3-12,0.5-24,0.5-36c0.1-14.2,0.1-28.5,0.1-42.7V373c0-14.2,0-28.5-0.1-42.7
	C1023.8,318.3,1023.7,306.3,1023.4,294.3z"/>
</svg>
